# xmcd
#
# Track frame offsets:
#	150
#	16557
#	28553
#	39341
#	57360
#	75745
#	90860
#	106290
#
# Disc length: 1686 seconds
#
# Revision: 0
# Processed by: cddbd v1.5.2PL0 Copyright (c) Steve Scherf et al.
# Submitted via: audiograbber 1.83.01
#
DISCID=49069408
DTITLE=Dana Johnson - Dana Johnson
DYEAR=2008
DGENRE=Country
TTITLE0=Crying Over Nothing
TTITLE1=Drive
TTITLE2=Mine All Mine
TTITLE3=Grounded
TTITLE4=Black Creek Road
TTITLE5=Sorry Ain't Enough
TTITLE6=The Hurtin' Kind
TTITLE7=Never Learned to Cry
EXTD=
EXTT0=
EXTT1=
EXTT2=
EXTT3=
EXTT4=
EXTT5=
EXTT6=
EXTT7=
PLAYORDER=
